# xmcd
#
# Track frame offsets:
#	150
#	14999
#	29320
#	44990
#	62890
#	78035
#	91703
#	108178
#	125027
#	141217
#	157390
#	172942
#	188595
#	204746
#	221704
#	238150
#	254513
#	270966
#	288178
#	303920
#	320520
#	335528
#
# Disc length: 4663 seconds
#
# Revision: 2
# Processed by: cddbd v1.5.2PL0 Copyright (c) Steve Scherf et al.
# Submitted via: audiograbber 1.83.01
#
DISCID=49123516
DTITLE=Various Artist - NOW - The Hits Of Winter 2011
DYEAR=2011
DGENRE=Pop
TTITLE0=Snoop Dogg vs. David Guetta - Sweat
TTITLE1=Bruno Mars - The Lazy Song
TTITLE2=Katy Perry - E.T.
TTITLE3=Lupe Fiasco - The Show Goes On
TTITLE4=Flo Rida feat. Akon - Who Dat Girl
TTITLE5=Wynter Gordon - Til Death
TTITLE6=Wiz Khalifa - Black And Yellow
TTITLE7=Good Charlotte - Last Night
TTITLE8=Panic! At The Disco - The Ballad Of Mona Lisa
TTITLE9=Birds Of Tokyo - Circles
TTITLE10=Sick Puppies - Maybe
TTITLE11=Kylie Minogue - Better Than Today
TTITLE12=Swedish House Mafia - Save The World
TTITLE13=New Boyz feat. The Cataracs and Dev - Backseat
TTITLE14=Cee Lo Green feat. Wiz Khalifa - Bright Lights Bigger City
TTITLE15=360 feat. Josh Pyke - Throw It Away
TTITLE16=The Wombats - Jump Into The Fog
TTITLE17=My Chemical Romance - Planetary (Go!)
TTITLE18=These Kids Wear Crowns - Jumpstart
TTITLE19=Example - Won't Go Quietly
TTITLE20=Alex Metric and Steve Angello feat. Ian Brown - Open Your Eyes
TTITLE21=Freemasons feat. Wynter Gordon - Believer
EXTD=
EXTT0=
EXTT1=
EXTT2=
EXTT3=
EXTT4=
EXTT5=
EXTT6=
EXTT7=
EXTT8=
EXTT9=
EXTT10=
EXTT11=
EXTT12=
EXTT13=
EXTT14=
EXTT15=
EXTT16=
EXTT17=
EXTT18=
EXTT19=
EXTT20=
EXTT21=
PLAYORDER=
